<svg xmlns="http://www.w3.org/2000/svg" viewBox="0 0 48 48"><defs><linearGradient id="f" x1="0" y1="0" x2="1" y2="1"><stop offset="0" stop-color="#1a7fd6"/><stop offset="1" stop-color="#063d75"/></linearGradient></defs><rect x="2" y="2" width="44" height="44" rx="13" fill="url(#f)"/><circle cx="24" cy="21" r="10.5" fill="#fff"/><path fill="#08529b" d="M24 12.4l3.1 2.3-1.2 3.6h-3.8l-1.2-3.6zM17 17.9l2.3 1.7-.9 2.7-2.9.1a8 8 0 01.6-4.5zm14 0a8 8 0 01.6 4.5l-2.9-.1-.9-2.7zm-9.7 6.2h5.4l1.1 2.6-2.8 2.2-2.8-2.2z"/><rect x="8" y="37.5" width="10.7" height="4.5" rx="1" fill="#00934b"/><rect x="18.7" y="37.5" width="10.6" height="4.5" fill="#fff"/><rect x="29.3" y="37.5" width="10.7" height="4.5" rx="1" fill="#e63328"/></svg>
